<?xml version="1.0" standalone="no"?>
<!DOCTYPE svg PUBLIC "-//W3C//DTD SVG 20010904//EN"
 "http://www.w3.org/TR/2001/REC-SVG-20010904/DTD/svg10.dtd">
<svg version="1.0" xmlns="http://www.w3.org/2000/svg"
 width="1024.000000pt" height="1024.000000pt" viewBox="0 0 1024.000000 1024.000000"
 preserveAspectRatio="xMidYMid meet">
<metadata>
Created by potrace 1.16, written by Peter Selinger 2001-2019
</metadata>
<g transform="translate(0.000000,1024.000000) scale(0.100000,-0.100000)"
fill="#000000" stroke="none">
<path d="M4838 9474 c-764 -111 -1401 -650 -1632 -1383 -92 -291 -117 -687
-61 -951 13 -59 14 -60 9 -15 -3 28 -7 62 -10 76 -4 23 4 32 78 81 466 310
980 494 1563 559 138 15 548 16 680 0 580 -67 1076 -243 1539 -545 48 -31 89
-63 93 -72 3 -8 -2 -58 -11 -111 -9 -53 -14 -98 -12 -100 2 -2 11 36 20 86 52
282 49 554 -10 819 -94 422 -320 804 -639 1079 -302 261 -651 421 -1042 477
-138 20 -427 20 -565 0z"/>
<path d="M1875 4859 c-447 -148 -842 -461 -1085 -860 -195 -319 -290 -664
-290 -1049 0 -252 30 -432 110 -663 300 -868 1172 -1426 2086 -1336 466 46
892 245 1215 568 l105 106 -95 -91 c-90 -85 -245 -214 -258 -214 -6 0 -176 89
-258 135 -341 192 -706 508 -967 835 -392 493 -631 1062 -720 1715 -22 161
-30 583 -15 716 l8 66 57 24 c31 13 104 38 162 56 58 17 96 32 85 32 -11 0
-74 -18 -140 -40z"/>
<path d="M8295 4874 c44 -14 117 -39 162 -56 l81 -31 8 -116 c83 -1195 -455
-2339 -1426 -3035 -138 -99 -274 -182 -427 -261 l-112 -57 -83 65 c-46 35
-132 113 -193 173 -80 80 -93 91 -50 41 242 -277 621 -503 1002 -596 174 -42
288 -55 483 -55 195 0 309 13 483 55 536 131 1005 488 1272 969 529 954 206
2151 -732 2710 -154 92 -398 193 -518 215 -16 3 6 -7 50 -21z"/>
</g>
</svg>
